# xmcd
#
# Track frame offsets: 
#        150
#        23370
#        44812
#        62284
#        92892
#        120659
#        153972
#        177815
#        203908
#        226056
#
# Disc length: 3421 seconds
#
# Revision: 0
# Processed by: cddbd v1.5.2PL0 Copyright (c) Steve Scherf et al.
# Submitted via: ExactAudioCopyFreeDBPlugin 1.0
#
DISCID=730d5b0a
DTITLE=Maruddan - Sada Kalo
DYEAR=2010
DGENRE=Folk/Rock
TTITLE0=Brishti Cheyeche Mon
TTITLE1=Mon
TTITLE2=Bhalo Achi Bhalo Theko
TTITLE3=Ratri
TTITLE4=Moti Ke Gourange
TTITLE5=Kalankini Radha
TTITLE6=Satotar Gati Badlay
TTITLE7=Gharer Chabi
TTITLE8=Deho Jamin
TTITLE9=Netai
EXTD=
EXTT0=
EXTT1=
EXTT2=
EXTT3=
EXTT4=
EXTT5=
EXTT6=
EXTT7=
EXTT8=
EXTT9=
PLAYORDER=
